<svg width="1024" height="1639" viewBox="0 0 1024 1639" fill="none" xmlns="http://www.w3.org/2000/svg">
<path d="M1024 0H0V1635.8H1024V0Z" fill="#F5D5ED" fill-opacity="0.3"/>
<path d="M0 1134.16L24.4622 1114.53C48.9244 1095.17 97.8489 1055.91 146.546 1036.83C195.356 1017.74 243.826 1018.83 292.636 1036.55C341.333 1054.27 390.258 1088.63 438.955 1067.91C487.765 1046.91 536.235 970.575 585.045 953.399C633.742 935.951 682.667 977.936 731.364 998.384C780.174 1018.83 828.644 1017.74 877.454 987.479C926.151 956.944 975.076 896.964 999.538 866.975L1024 836.985V1638.53H999.538C975.076 1638.53 926.151 1638.53 877.454 1638.53C828.644 1638.53 780.174 1638.53 731.364 1638.53C682.667 1638.53 633.742 1638.53 585.045 1638.53C536.235 1638.53 487.765 1638.53 438.955 1638.53C390.258 1638.53 341.333 1638.53 292.636 1638.53C243.826 1638.53 195.356 1638.53 146.546 1638.53C97.8489 1638.53 48.9244 1638.53 24.4622 1638.53H0V1134.16Z" fill="#EBB9DF" fill-opacity="0.2"/>
<path d="M0 1175.05L24.4622 1154.6C48.9244 1134.16 97.8489 1093.26 146.546 1088.63C195.356 1084.26 243.826 1115.89 292.636 1137.43C341.333 1158.69 390.258 1169.6 438.955 1146.97C487.765 1124.07 536.235 1067.91 585.045 1048.28C633.742 1028.65 682.667 1046.09 731.364 1059.18C780.174 1072.27 828.644 1081.54 877.454 1110.44C926.151 1139.61 975.076 1188.68 999.538 1213.22L1024 1237.76V1638.53H999.538C975.076 1638.53 926.151 1638.53 877.454 1638.53C828.644 1638.53 780.174 1638.53 731.364 1638.53C682.667 1638.53 633.742 1638.53 585.045 1638.53C536.235 1638.53 487.765 1638.53 438.955 1638.53C390.258 1638.53 341.333 1638.53 292.636 1638.53C243.826 1638.53 195.356 1638.53 146.546 1638.53C97.8489 1638.53 48.9244 1638.53 24.4622 1638.53H0V1175.05Z" fill="#E6AFD6" fill-opacity="0.2"/>
<path d="M0 1235.03L24.4622 1241.03C48.9244 1246.75 97.8489 1258.75 146.546 1268.29C195.356 1277.83 243.826 1284.92 292.636 1280.56C341.333 1275.92 390.258 1259.57 438.955 1246.75C487.765 1234.21 536.235 1224.94 585.045 1202.86C633.742 1180.5 682.667 1145.06 731.364 1163.33C780.174 1181.32 828.644 1253.3 877.454 1264.47C926.151 1275.92 975.076 1226.85 999.538 1202.31L1024 1177.78V1638.53H999.538C975.076 1638.53 926.151 1638.53 877.454 1638.53C828.644 1638.53 780.174 1638.53 731.364 1638.53C682.667 1638.53 633.742 1638.53 585.045 1638.53C536.235 1638.53 487.765 1638.53 438.955 1638.53C390.258 1638.53 341.333 1638.53 292.636 1638.53C243.826 1638.53 195.356 1638.53 146.546 1638.53C97.8489 1638.53 48.9244 1638.53 24.4622 1638.53H0V1235.03Z" fill="#E2A5CD" fill-opacity="0.2"/>
<path d="M0 1292.28L24.4622 1301.83C48.9244 1311.37 97.8489 1330.45 146.546 1349.54C195.356 1368.62 243.826 1387.7 292.636 1390.43C341.333 1393.16 390.258 1379.53 438.955 1385.8C487.765 1392.34 536.235 1418.51 585.045 1418.24C633.742 1417.69 682.667 1390.43 731.364 1390.43C780.174 1390.43 828.644 1417.69 877.454 1428.05C926.151 1438.69 975.076 1432.14 999.538 1429.14L1024 1425.87V1638.53H999.538C975.076 1638.53 926.151 1638.53 877.454 1638.53C828.644 1638.53 780.174 1638.53 731.364 1638.53C682.667 1638.53 633.742 1638.53 585.045 1638.53C536.235 1638.53 487.765 1638.53 438.955 1638.53C390.258 1638.53 341.333 1638.53 292.636 1638.53C243.826 1638.53 195.356 1638.53 146.546 1638.53C97.8489 1638.53 48.9244 1638.53 24.4622 1638.53H0V1292.28Z" fill="#DD9BC4" fill-opacity="0.2"/>
<path d="M0 1545.83L24.4622 1527.29C48.9244 1508.48 97.8489 1471.4 146.546 1453.14C195.356 1434.87 243.826 1435.96 292.636 1429.96C341.333 1423.96 390.258 1411.42 438.955 1403.52C487.765 1395.88 536.235 1393.16 585.045 1399.43C633.742 1405.97 682.667 1421.24 731.364 1424.51C780.174 1427.78 828.644 1418.51 877.454 1426.69C926.151 1434.87 975.076 1460.5 999.538 1473.04L1024 1485.85V1638.53H999.538C975.076 1638.53 926.151 1638.53 877.454 1638.53C828.644 1638.53 780.174 1638.53 731.364 1638.53C682.667 1638.53 633.742 1638.53 585.045 1638.53C536.235 1638.53 487.765 1638.53 438.955 1638.53C390.258 1638.53 341.333 1638.53 292.636 1638.53C243.826 1638.53 195.356 1638.53 146.546 1638.53C97.8489 1638.53 48.9244 1638.53 24.4622 1638.53H0V1545.83Z" fill="#D991BA" fill-opacity="0.2"/>
</svg>
